<?xml version="1.0" standalone="no"?>
<!DOCTYPE svg PUBLIC "-//W3C//DTD SVG 20010904//EN"
 "http://www.w3.org/TR/2001/REC-SVG-20010904/DTD/svg10.dtd">
<svg version="1.0" xmlns="http://www.w3.org/2000/svg"
 width="678.000000pt" height="678.000000pt" viewBox="0 0 678.000000 678.000000"
 preserveAspectRatio="xMidYMid meet">
<metadata>
Created by potrace 1.11, written by Peter Selinger 2001-2013
</metadata>
<g transform="translate(0.000000,678.000000) scale(0.100000,-0.100000)"
fill="#000000" stroke="none">
<path d="M3115 6279 c-252 -26 -499 -83 -740 -171 -124 -45 -344 -149 -442
-208 -36 -22 -67 -40 -68 -40 -6 0 -129 -83 -170 -114 -22 -17 -40 -36 -40
-42 0 -7 -73 -73 -162 -148 -164 -137 -180 -153 -169 -163 3 -3 83 60 178 140
131 110 176 143 186 135 7 -6 39 -46 71 -88 l59 -77 -52 -41 c-29 -23 -65 -56
-81 -72 -50 -52 -9 -32 71 34 l77 64 31 -37 c70 -85 101 -124 104 -131 2 -4
-71 -70 -162 -146 -91 -77 -165 -142 -166 -146 -1 -20 28 1 179 127 89 74 166
135 170 135 8 0 22 -15 84 -92 l39 -47 -39 -33 c-76 -65 -128 -118 -117 -118
6 0 46 30 90 66 l79 66 39 -44 c63 -70 88 -107 82 -117 -5 -8 -256 -223 -312
-267 -17 -13 -18 -24 -3 -24 6 0 80 59 166 131 85 71 161 133 168 135 11 5
124 -119 133 -145 2 -5 -31 -37 -72 -72 -70 -60 -86 -79 -68 -79 4 0 42 30 85
66 43 36 80 64 81 62 1 -2 33 -40 70 -86 58 -70 67 -85 55 -96 -8 -7 -70 -60
-140 -118 -130 -110 -158 -138 -141 -138 5 0 77 56 158 125 l149 125 52 -57
c29 -32 53 -61 53 -65 0 -4 -38 -39 -85 -79 -76 -65 -97 -89 -79 -89 3 0 45
34 94 75 l88 74 61 -75 c34 -41 64 -80 67 -87 2 -7 -67 -73 -161 -151 -91 -76
-162 -142 -159 -148 4 -5 15 -2 28 10 11 10 80 67 151 127 72 60 138 116 148
124 18 15 21 14 42 -13 l23 -29 4 249 c1 137 1 412 0 611 l-4 361 -44 28
c-106 67 -94 176 26 236 126 62 285 83 585 76 170 -4 228 -10 301 -27 162 -39
246 -110 230 -193 -7 -40 -56 -95 -96 -109 l-25 -9 3 -723 c2 -397 6 -724 9
-727 2 -3 17 11 33 30 24 30 576 688 889 1060 87 104 203 239 305 358 11 12
26 22 33 22 7 0 21 4 31 10 9 5 52 25 95 43 l78 34 -78 64 c-315 260 -587 413
-948 536 -225 76 -382 110 -630 138 -139 16 -447 18 -580 4z"/>
<path d="M5651 5653 l-32 -16 27 -25 c26 -24 27 -25 40 -7 15 21 18 51 6 59
-4 2 -23 -3 -41 -11z"/>
<path d="M5532 5229 c-18 -39 -32 -77 -32 -84 0 -7 -13 -28 -29 -47 -16 -18
-64 -76 -108 -128 -323 -387 -870 -1041 -946 -1130 -71 -82 -224 -267 -230
-277 -8 -13 5 -32 252 -399 85 -126 325 -482 532 -791 309 -459 393 -577 456
-641 87 -87 123 -157 123 -239 0 -45 0 -46 20 -28 26 24 167 206 221 286 329
488 500 1041 500 1623 1 395 -62 728 -207 1098 -77 199 -241 491 -370 660 -62
81 -136 168 -144 168 -3 0 -20 -32 -38 -71z"/>
<path d="M1028 5073 c-20 -22 -108 -152 -108 -160 0 -3 -9 -18 -20 -33 -11
-16 -51 -89 -89 -162 -293 -571 -388 -1212 -276 -1853 45 -257 137 -532 261
-777 83 -166 120 -227 248 -413 30 -42 118 -154 155 -195 l31 -35 0 50 c0 77
46 165 129 244 67 64 208 270 975 1416 77 116 145 213 150 217 5 3 -13 33 -40
66 -74 90 -651 774 -738 877 -24 28 -125 147 -225 265 -101 118 -192 226 -204
240 -12 14 -64 75 -116 135 -52 61 -100 116 -106 123 -9 10 -14 9 -27 -5z"/>
<path d="M3791 4249 c-49 -198 -49 -199 17 -199 l32 0 0 190 c0 105 -1 190 -3
190 -1 0 -22 -81 -46 -181z"/>
<path d="M2865 3995 c-21 -17 -25 -24 -14 -25 16 0 56 37 48 45 -3 2 -18 -7
-34 -20z"/>
<path d="M1964 889 c-23 -25 -30 -20 151 -109 623 -304 1349 -375 2025 -199
160 42 492 168 522 197 4 4 -6 25 -24 46 -36 44 -11 43 -243 3 -589 -103
-1307 -109 -1920 -16 -123 19 -246 43 -378 75 -118 29 -110 29 -133 3z"/>
</g>
</svg>
